<svg width="29" height="29" viewBox="0 0 29 29" fill="none" xmlns="http://www.w3.org/2000/svg">
<g clip-path="url(#clip0_1_471)">
<path d="M28.213 0.985414C28.7851 1.36365 29.0853 2.01746 28.9776 2.67128L25.3526 25.1494C25.2677 25.6736 24.9335 26.1328 24.4464 26.3922C23.9593 26.6516 23.3759 26.684 22.8605 26.4787L15.7067 23.6419L13.4355 27.6674C13.1409 28.1915 12.5122 28.4563 11.9062 28.3104C11.3001 28.1645 10.8753 27.6458 10.8753 27.0514V21.8642C10.8753 21.5778 10.9773 21.2968 11.1642 21.0699L20.5269 9.58223C20.6685 9.19859 20.1587 8.80954 19.7905 9.12834L9.65186 17.8765L7.83936 19.438C7.31827 19.8865 6.57628 20.0108 5.92491 19.7514L1.11046 17.8386C0.476082 17.5847 0.0456136 17.0119 0.00596516 16.3527C-0.0336833 15.6935 0.317489 15.0721 0.917879 14.7425L26.2929 0.909767C26.8989 0.580159 27.6466 0.61258 28.2187 0.985414H28.213Z" fill="white"/>
</g>
<defs>
<clipPath id="clip0_1_471">
<rect width="29" height="27.6654" fill="white" transform="translate(0 0.682861)"/>
</clipPath>
</defs>
</svg>
